<svg width="148" height="83" viewBox="0 0 148 83" fill="none" xmlns="http://www.w3.org/2000/svg">
<circle cx="139" cy="9" r="9" fill="#8BD7F4"/>
<circle cx="103" cy="9" r="9" fill="#8BD7F4"/>
<path d="M0.78125 55V6.75H10.9062C15.7604 6.75 19.5938 7.22917 22.4062 8.1875C25.4271 9.125 28.1667 10.7188 30.625 12.9688C35.6042 17.5104 38.0938 23.4792 38.0938 30.875C38.0938 38.2917 35.5 44.2917 30.3125 48.875C27.7083 51.1667 24.9792 52.7604 22.125 53.6562C19.4583 54.5521 15.6771 55 10.7812 55H0.78125ZM8.0625 48.1562H11.3438C14.6146 48.1562 17.3333 47.8125 19.5 47.125C21.6667 46.3958 23.625 45.2396 25.375 43.6562C28.9583 40.3854 30.75 36.125 30.75 30.875C30.75 25.5833 28.9792 21.2917 25.4375 18C22.25 15.0625 17.5521 13.5938 11.3438 13.5938H8.0625V48.1562Z" fill="black"/>
<path d="M53.2887 24.5625V55H46.2575V24.5625H53.2887ZM45.195 11.9062C45.195 10.6771 45.6429 9.61458 46.5387 8.71875C47.4346 7.82292 48.5075 7.375 49.7575 7.375C51.0283 7.375 52.1117 7.82292 53.0075 8.71875C53.9033 9.59375 54.3512 10.6667 54.3512 11.9375C54.3512 13.2083 53.9033 14.2917 53.0075 15.1875C52.1325 16.0833 51.0596 16.5312 49.7887 16.5312C48.5179 16.5312 47.4346 16.0833 46.5387 15.1875C45.6429 14.2917 45.195 13.1979 45.195 11.9062Z" fill="black"/>
<path d="M92.2725 54.2812C92.2725 55.7188 92.2204 56.9792 92.1162 58.0625C92.0329 59.1667 91.9079 60.1354 91.7412 60.9688C91.2412 63.2604 90.2621 65.2292 88.8037 66.875C86.0537 70.0417 82.2725 71.625 77.46 71.625C73.3975 71.625 70.0537 70.5312 67.4287 68.3438C64.7204 66.0938 63.1579 62.9792 62.7412 59H69.8037C70.0746 60.5 70.5225 61.6562 71.1475 62.4688C72.6058 64.3646 74.7308 65.3125 77.5225 65.3125C82.6683 65.3125 85.2412 62.1562 85.2412 55.8438V51.5938C82.4496 54.4479 79.2308 55.875 75.585 55.875C71.4392 55.875 68.0433 54.375 65.3975 51.375C62.7308 48.3333 61.3975 44.5312 61.3975 39.9688C61.3975 35.5312 62.6371 31.7604 65.1162 28.6562C67.7829 25.3646 71.3037 23.7188 75.6787 23.7188C79.5121 23.7188 82.6996 25.1458 85.2412 28V24.5625H92.2725V54.2812ZM85.5225 39.8438C85.5225 36.8854 84.7308 34.5208 83.1475 32.75C81.5433 30.9375 79.4912 30.0312 76.9912 30.0312C74.3246 30.0312 72.2204 31.0208 70.6787 33C69.2829 34.7708 68.585 37.0625 68.585 39.875C68.585 42.6458 69.2829 44.9167 70.6787 46.6875C72.1996 48.625 74.3037 49.5938 76.9912 49.5938C79.6787 49.5938 81.8037 48.6146 83.3662 46.6562C84.8037 44.8854 85.5225 42.6146 85.5225 39.8438Z" fill="black"/>
<path d="M109.779 24.5625V55H102.747V24.5625H109.779ZM101.685 11.9062C101.685 10.6771 102.133 9.61458 103.029 8.71875C103.925 7.82292 104.997 7.375 106.247 7.375C107.518 7.375 108.602 7.82292 109.497 8.71875C110.393 9.59375 110.841 10.6667 110.841 11.9375C110.841 13.2083 110.393 14.2917 109.497 15.1875C108.622 16.0833 107.55 16.5312 106.279 16.5312C105.008 16.5312 103.925 16.0833 103.029 15.1875C102.133 14.2917 101.685 13.1979 101.685 11.9062Z" fill="black"/>
<path d="M127.956 2.21875V55H120.925V2.21875H127.956Z" fill="black"/>
<path d="M146.134 24.5625V55H139.102V24.5625H146.134ZM138.04 11.9062C138.04 10.6771 138.488 9.61458 139.384 8.71875C140.28 7.82292 141.352 7.375 142.602 7.375C143.873 7.375 144.957 7.82292 145.852 8.71875C146.748 9.59375 147.196 10.6667 147.196 11.9375C147.196 13.2083 146.748 14.2917 145.852 15.1875C144.977 16.0833 143.905 16.5312 142.634 16.5312C141.363 16.5312 140.28 16.0833 139.384 15.1875C138.488 14.2917 138.04 13.1979 138.04 11.9062Z" fill="black"/>
<path d="M107 62C107 84.6667 143 84.6667 143 62" stroke="#F98987" stroke-width="6.7"/>
</svg>
